<svg xmlns="http://www.w3.org/2000/svg" width="51.39" height="35.973" viewBox="0 0 51.39 35.973">
  <defs>
    <style>
      .cls-1 {
        fill: #fff;
      }
    </style>
  </defs>
  <path id="Icon_awesome-users" data-name="Icon awesome-users" class="cls-1" d="M7.708,17.667a5.139,5.139,0,1,0-5.139-5.139A5.144,5.144,0,0,0,7.708,17.667Zm35.973,0a5.139,5.139,0,1,0-5.139-5.139A5.144,5.144,0,0,0,43.681,17.667Zm2.569,2.569H41.112a5.124,5.124,0,0,0-3.621,1.494,11.745,11.745,0,0,1,6.03,8.784h5.3a2.567,2.567,0,0,0,2.569-2.569V25.375A5.144,5.144,0,0,0,46.251,20.236Zm-20.556,0A8.993,8.993,0,1,0,16.7,11.243,8.989,8.989,0,0,0,25.695,20.236Zm6.167,2.569H31.2a12.416,12.416,0,0,1-11,0h-.666a9.253,9.253,0,0,0-9.25,9.25v2.313a3.855,3.855,0,0,0,3.854,3.854H37.258a3.855,3.855,0,0,0,3.854-3.854V32.056A9.253,9.253,0,0,0,31.862,22.806ZM13.9,21.73a5.124,5.124,0,0,0-3.621-1.494H5.139A5.144,5.144,0,0,0,0,25.375v2.569a2.567,2.567,0,0,0,2.569,2.569H7.861A11.775,11.775,0,0,1,13.9,21.73Z" transform="translate(0 -2.25)"/>
</svg>
