<svg id="Icon_feather-shopping-cart" data-name="Icon feather-shopping-cart" xmlns="http://www.w3.org/2000/svg" width="40.842" height="39.121" viewBox="0 0 40.842 39.121">
  <defs>
    <style>
      .cls-1 {
        fill: none;
        stroke: #fff;
        stroke-linecap: round;
        stroke-linejoin: round;
        stroke-width: 3px;
      }
    </style>
  </defs>
  <path id="Tracciato_8" data-name="Tracciato 8" class="cls-1" d="M15.44,31.72A1.72,1.72,0,1,1,13.72,30,1.72,1.72,0,0,1,15.44,31.72Z" transform="translate(1.54 4.181)"/>
  <path id="Tracciato_9" data-name="Tracciato 9" class="cls-1" d="M31.94,31.72A1.72,1.72,0,1,1,30.22,30,1.72,1.72,0,0,1,31.94,31.72Z" transform="translate(3.961 4.181)"/>
  <path id="Tracciato_10" data-name="Tracciato 10" class="cls-1" d="M1.5,1.5H8.38l4.61,23.032A3.44,3.44,0,0,0,16.43,27.3H33.149a3.44,3.44,0,0,0,3.44-2.769L39.342,10.1H10.1"/>
</svg>
