<svg id="local_shipping-white-18dp" xmlns="http://www.w3.org/2000/svg" width="50.961" height="50.961" viewBox="0 0 50.961 50.961">
  <defs>
    <style>
      .cls-1 {
        fill: none;
      }

      .cls-2 {
        fill: #fff;
      }
    </style>
  </defs>
  <path id="Tracciato_15" data-name="Tracciato 15" class="cls-1" d="M0,0H50.961V50.961H0Z"/>
  <path id="Tracciato_16" data-name="Tracciato 16" class="cls-2" d="M41.344,12.494h-6.37V4H5.247A4.259,4.259,0,0,0,1,8.247V31.6H5.247a6.37,6.37,0,1,0,12.74,0h12.74a6.37,6.37,0,1,0,12.74,0h4.247V20.987Zm-1.062,3.185,4.162,5.308h-9.47V15.679ZM11.617,33.727A2.123,2.123,0,1,1,13.74,31.6,2.13,2.13,0,0,1,11.617,33.727Zm4.714-6.37a6.294,6.294,0,0,0-9.428,0H5.247V8.247H30.727v19.11ZM37.1,33.727A2.123,2.123,0,1,1,39.221,31.6,2.13,2.13,0,0,1,37.1,33.727Z" transform="translate(1.123 4.494)"/>
</svg>
